Video
ID : 0
Format : MPEG-4 Visual
Format profile : Advanced Simple@L5
Format settings, BVOP : 1
Format settings, QPel : No
Format settings, GMC : No warppoints
Format settings, Matrix : Default (H.263)
Muxing mode : Packed bitstream
Codec ID : XVID
Codec ID/Hint : XviD
Duration : 1h 54mn
Bit rate : 1 557 Kbps
Width : 672 pixels
Height : 282 pixels
Display aspect ratio : 2.40:1
Frame rate : 23.976 fps
Color space : YUV
Chroma subsampling : 4:2:0
Bit depth : 8 bits
Scan type : Progressive
Compression mode : Lossy
Bits/(Pixel*Frame) : 0.343
Stream size : 1.25 GiB (92%)
Writing library : XviD 64

Audio
ID : 1
Format : MPEG Audio
Format version : Version 1
Format profile : Layer 3
Mode : Joint stereo
Mode extension : MS Stereo
Codec ID : 55
Codec ID/Hint : MP3
Duration : 1h 54mn
Bit rate mode : Variable
Bit rate : 121 Kbps
Channel(s) : 2 channels
Sampling rate : 44.1 KHz
Compression mode : Lossy
Stream size : 99.2 MiB (7%)
Alignment : Aligned on interleaves
Interleave, duration : 26 ms (0.63 video frame)
Interleave, preload duration : 535 ms


 
http://www.imdb.com/title/tt1440345/

 
http://img207.imageshack.us/img207/2221/vlcsnap2011122215h09m06.png
 
http://img651.imageshack.us/img651/8769/vlcsnap2011122215h09m36.png
 
http://img31.imageshack.us/img31/7378/vlcsnap2011122215h09m12.png

Storyline

Cheyenne, a wealthy former rock star (Penn), now bored and jaded in his retirement embarks on a quest to find his father's persecutor, an ex-Nazi war criminal now hiding out in the U.S. Learning his father is close to death, he travels to New York in the hope of being reconciled with him during his final hours, only to arrive too late. Having been estranged for over 30 years, it is only now in death that he learns the true extent of his father's humiliation in Auschwitz at the hands of former SS Officer Aloise Muller - an event he is determined to avenge. So begins a life-altering journey across the heartland of America to track down and confront his father's nemesis. As his quest unfolds, Cheyenne is reawakened by the people he encounters and his journey is transformed into one of reconciliation and self discovery. As his date with destiny arrives and he tracks down Muller, Cheyenne must finally decide if it is redemption he seeks ...


Source Used




Evolution .............Thanks




I dont even know what this movie is never even heard of it .......but here goes 


Filtered it plenty vid is pretty good 

Sample included tho so check it out



Enjoy





Greetz to EMBER,ETRG,BHRG,FYA,26k,CreWSaDe,RemixHD.......and maybe many more